Coordinates
version=1
nRows=12
nColumns=42
inDegrees=yes

Units are S.I. units (second, meters, Newtons, ...)
If the header above contains a line with 'inDegrees', this indicates whether rotational values are in degrees (yes) or radians (no).

endheader
time	pelvis_tilt	pelvis_list	pelvis_rotation	pelvis_tx	pelvis_ty	pelvis_tz	hip_flexion_r	hip_adduction_r	hip_rotation_r	knee_angle_r	knee_adduction_r	knee_angle_r_beta	ankle_angle_r	subtalar_angle_r	mtp_angle_r	hip_flexion_l	hip_adduction_l	hip_rotation_l	knee_angle_l	knee_adduction_l	knee_angle_l_beta	ankle_angle_l	subtalar_angle_l	mtp_angle_l	lumbar_extension	lumbar_bending	lumbar_rotation	arm_flex_r	arm_add_r	arm_rot_r	elbow_flex_r	pro_sup_r	wrist_flex_r	wrist_dev_r	arm_flex_l	arm_add_l	arm_rot_l	elbow_flex_l	pro_sup_l	wrist_flex_l	wrist_dev_l
      0.00000000	      7.57954666	      2.13151636	     -4.81240470	     -2.81841129	      0.83651031	      0.11485093	    -19.21793531	      0.90147049	    -30.25817528	     33.13379792	    -19.62361947	      0.57829387	     10.06873514	     30.39724055	     -9.46333897	     25.06629332	      8.19854671	    -11.75552224	     31.52911582	    -12.05783977	      0.55028688	     10.61203358	      2.69550204	     -9.46333897	    -27.35322466	     -5.64315750	      7.48686388	     15.66923796	    -16.01182580	      5.79329465	     51.16320199	     90.00000001	      0.00000000	      0.00000000	     -7.44591626	    -11.71793929	     19.16699403	     26.34364400	     90.00000001	      0.00000000	      0.00000000
      0.01000000	      7.81395981	      2.66689460	     -4.62017720	     -2.80449644	      0.83815262	      0.11392195	    -18.46526877	     -0.14245856	    -31.08339421	     35.79713673	    -20.52117481	      0.62477790	      6.21045900	     29.43615105	     -9.44276775	     24.24772746	      8.98642763	    -11.62731489	     32.44593223	    -11.92607484	      0.56628835	     11.56275317	      2.38759166	     -9.44276775	    -27.61252035	     -6.18433692	      7.15961486	     15.20274108	    -15.83396209	      5.76340969	     50.27797335	     90.00000001	      0.00000000	      0.00000000	     -6.62237014	    -11.91639612	     19.17806630	     26.46291557	     90.00000001	      0.00000000	      0.00000000
      0.02000000	      7.74381463	      3.08212993	     -4.19911042	     -2.79132478	      0.83984129	      0.11264600	    -17.09186892	     -0.74884993	    -31.36819487	     38.86660238	    -21.43848830	      0.67835018	      2.11010593	     25.34555686	     -9.31831741	     23.53200589	      9.87425707	    -10.57104769	     32.94930990	    -11.69166475	      0.57507394	     11.89948595	      0.75330218	     -9.31831741	    -27.62724462	     -6.47048800	      6.72035954	     14.80422648	    -15.60025939	      5.58973769	     49.07524962	     90.00000001	      0.00000000	      0.00000000	     -5.63523107	    -12.09365381	     19.30263459	     26.55428157	     90.00000001	      0.00000000	      0.00000000
      0.03000000	      7.78126120	      3.47448644	     -3.85366790	     -2.77816732	      0.84194760	      0.11140485	    -15.64690822	     -1.53583199	    -32.03942060	     42.00431363	    -22.43935074	      0.73311357	     -1.49852713	     22.26279306	     -9.22819083	     22.51819321	     10.63936524	    -10.29072048	     33.01037234	    -11.68801297	      0.57613968	     12.66447377	      0.57987172	     -9.22819083	    -27.73431601	     -6.72158369	      6.32667307	     14.43292161	    -15.45899614	      5.68652270	     47.85963678	     90.00000001	      0.00000000	      0.00000000	     -4.64104382	    -12.22610233	     19.13695460	     26.78294509	     90.00000001	      0.00000000	      0.00000000
      0.04000000	      7.83109542	      3.86398124	     -3.57275000	     -2.76500169	      0.84427814	      0.11037693	    -14.04832261	     -2.39948273	    -33.16193160	     45.01127775	    -23.79617843	      0.78559500	     -4.51736480	     20.58227612	     -9.20450937	     21.30174439	     11.35347047	    -10.22904595	     32.70832131	    -11.74728779	      0.57086790	     13.74115530	      0.82449101	     -9.20450937	    -27.81378502	     -6.98310803	      6.02291249	     13.97982360	    -15.34763534	      5.88398161	     46.68220960	     90.00000001	      0.00000000	      0.00000000	     -3.60782648	    -12.38087775	     18.97892012	     27.10552670	     90.00000001	      0.00000000	      0.00000000
      0.05000000	      7.85175249	      3.92910394	     -3.23849723	     -2.75231850	      0.84699233	      0.10915824	    -12.29165421	     -2.72640522	    -32.90057033	     48.46754771	    -24.22632601	      0.84591829	     -6.75231190	     14.75370300	     -9.09049646	     20.08524245	     11.69611406	    -10.24590422	     32.32615044	    -11.89627533	      0.56419776	     14.56425253	      1.48249487	     -9.09049646	    -27.92663795	     -6.80033198	      5.71755785	     13.70866840	    -15.31317377	      6.12337120	     45.34474098	     90.00000001	      0.00000000	      0.00000000	     -2.56177358	    -12.31875422	     18.20495877	     27.47671555	     90.00000001	      0.00000000	      0.00000000
      0.06000000	      7.88129922	      4.04935894	     -2.92465502	     -2.73954461	      0.84978064	      0.10807256	    -10.44250833	     -3.20768337	    -33.31354337	     51.62125874	    -25.02337103	      0.90096093	     -7.95335945	     11.09779444	     -9.01065149	     18.72179822	     12.10893460	    -10.22077638	     31.68398353	    -12.05667548	      0.55298983	     15.41157027	      2.28534227	     -9.01065149	    -28.00158126	     -6.69078706	      5.39919262	     13.37434768	    -15.26451291	      6.42378724	     44.02808022	     90.00000001	      0.00000000	      0.00000000	     -1.54696468	    -12.34911190	     17.53579792	     28.00167435	     90.00000001	      0.00000000	      0.00000000
      0.07000000	      7.94922867	      4.01668093	     -2.72006756	     -2.72683695	      0.85285876	      0.10727437	     -8.54463749	     -3.46758151	    -33.31798467	     54.64717900	    -25.52559392	      0.95377320	     -8.54189927	      6.99326905	     -8.92524001	     17.21881667	     12.26087340	    -10.18076633	     30.92218982	    -12.12187342	      0.53969402	     16.33593185	      3.10176899	     -8.92524001	    -28.10778601	     -6.42681042	      5.22106437	     13.01515159	    -15.24869589	      6.74262689	     42.81529917	     90.00000001	      0.00000000	      0.00000000	     -0.52681421	    -12.30364198	     16.64509594	     28.59335023	     90.00000001	      0.00000000	      0.00000000
      0.08000000	      8.04565411	      3.91582550	     -2.51087435	     -2.71432863	      0.85612354	      0.10651434	     -6.61558228	     -3.59802170	    -33.18840229	     57.44299007	    -25.83639358	      1.00256931	     -8.46518821	      3.08711398	     -8.84000685	     15.62207302	     12.32643963	    -10.01803188	     30.05084426	    -12.12719545	      0.52448618	     17.13389738	      3.85692574	     -8.84000685	    -28.26698560	     -6.07918616	      5.02146901	     12.66946278	    -15.26732397	      7.04830910	     41.67088876	     90.00000001	      0.00000000	      0.00000000	      0.50038424	    -12.24690700	     15.69049951	     29.28751738	     90.00000001	      0.00000000	      0.00000000
      0.09000000	      8.14562208	      3.79161439	     -2.24315809	     -2.70184928	      0.85943897	      0.10570778	     -4.67636492	     -3.71079615	    -33.13486771	     59.90642844	    -26.00216944	      1.04556442	     -7.81353901	     -0.08316910	     -8.77317812	     13.93333301	     12.40026987	     -9.59315881	     29.04134638	    -12.09933592	      0.50686711	     17.84898217	      4.51146400	     -8.77317812	    -28.41219030	     -5.66830615	      4.75556317	     12.29187515	    -15.28200953	      7.31323171	     40.59202467	     90.00000001	      0.00000000	      0.00000000	      1.49975163	    -12.26671943	     14.89428736	     30.07976962	     90.00000001	      0.00000000	      0.00000000
      0.10000000	      8.27865914	      3.60341370	     -1.97175022	     -2.68949797	      0.86281438	      0.10512141	     -2.76699271	     -3.68169006	    -33.36074438	     61.85686770	    -26.35244870	      1.07960601	     -6.59592734	     -2.17799692	     -8.73951518	     12.16848993	     12.31962583	     -9.07530174	     27.97520535	    -11.92169397	      0.48825944	     18.56363648	      5.02293625	     -8.73951518	    -28.60623893	     -5.20330808	      4.52180399	     11.83777148	    -15.28961970	      7.50246629	     39.67581530	     90.00000001	      0.00000000	      0.00000000	      2.52816425	    -12.36230410	     14.40205216	     30.91426160	     90.00000001	      0.00000000	      0.00000000
      0.11000000	      8.34081992	      3.35287604	     -1.71817563	     -2.67738273	      0.86604967	      0.10457527	     -0.72272107	     -3.51591941	    -33.18557790	     63.56719005	    -26.33217871	      1.10945676	     -5.36424414	     -4.27908823	     -8.70984251	     10.45159567	     12.17418432	     -8.47800975	     26.80117436	    -11.76914536	      0.46776874	     19.08374019	      5.51435337	     -8.70984251	    -28.72322687	     -4.65841156	      4.31663866	     11.37816713	    -15.32213222	      7.67158256	     38.83781727	     90.00000001	      0.00000000	      0.00000000	      3.54759730	    -12.47523194	     13.86620716	     31.87346878	     90.00000001	      0.00000000	      0.00000000
